<svg width="17" height="18" viewBox="0 0 17 18" fill="none" xmlns="http://www.w3.org/2000/svg">
<path id="Vector" d="M13.237 1.19597C13.2135 1.05497 13.16 0.920636 13.0802 0.802038C13.0004 0.683441 12.8961 0.583334 12.7743 0.508466C12.6526 0.433598 12.5161 0.385709 12.3743 0.368029C12.2324 0.350349 12.0884 0.363288 11.952 0.405974L4.952 2.59297C4.74846 2.65652 4.57056 2.78346 4.44427 2.95526C4.31798 3.12707 4.24991 3.33474 4.25 3.54797V11.68C3.79946 11.3421 3.24803 11.1662 2.68505 11.1808C2.12206 11.1954 1.58051 11.3997 1.14813 11.7606C0.715757 12.1214 0.417884 12.6177 0.302778 13.169C0.187672 13.7203 0.262076 14.2943 0.513935 14.798C0.765794 15.3017 1.18035 15.7056 1.69044 15.9443C2.20054 16.183 2.77628 16.2425 3.32439 16.1131C3.87249 15.9837 4.36086 15.673 4.71035 15.2314C5.05985 14.7898 5.25 14.2431 5.25 13.68V6.54797L12.25 4.35997V7.20297C12.593 7.23297 12.928 7.29597 13.25 7.38697V1.35997C13.25 1.30397 13.245 1.24997 13.237 1.19597ZM16.25 12.68C16.25 13.8734 15.7759 15.018 14.932 15.862C14.0881 16.7059 12.9435 17.18 11.75 17.18C10.5565 17.18 9.41194 16.7059 8.56802 15.862C7.72411 15.018 7.25 13.8734 7.25 12.68C7.25 11.4865 7.72411 10.3419 8.56802 9.49799C9.41194 8.65408 10.5565 8.17997 11.75 8.17997C12.9435 8.17997 14.0881 8.65408 14.932 9.49799C15.7759 10.3419 16.25 11.4865 16.25 12.68ZM13.987 12.245L10.993 10.595C10.9169 10.5529 10.8312 10.5314 10.7442 10.5326C10.6573 10.5337 10.5722 10.5576 10.4973 10.6017C10.4223 10.6458 10.3602 10.7087 10.317 10.7842C10.2739 10.8596 10.2511 10.945 10.251 11.032V14.332C10.2509 14.419 10.2736 14.5045 10.3167 14.5801C10.3598 14.6557 10.4219 14.7188 10.4968 14.763C10.5718 14.8073 10.657 14.8312 10.744 14.8324C10.831 14.8336 10.9168 14.8121 10.993 14.77L13.987 13.12C14.0652 13.0767 14.1303 13.0134 14.1757 12.9364C14.221 12.8595 14.2449 12.7718 14.2449 12.6825C14.2449 12.5932 14.221 12.5055 14.1757 12.4285C14.1303 12.3516 14.0652 12.2882 13.987 12.245Z" fill="#016066"/>
</svg>
